<?xml version="1.0" encoding="UTF-8"?>
<!DOCTYPE svg PUBLIC "-//W3C//DTD SVG 1.1//EN" "http://www.w3.org/Graphics/SVG/1.1/DTD/svg11.dtd">
<svg xmlns="http://www.w3.org/2000/svg" version="1.1" width="512px" height="512px" style="shape-rendering:geometricPrecision; text-rendering:geometricPrecision; image-rendering:optimizeQuality; fill-rule:evenodd; clip-rule:evenodd" xmlns:xlink="http://www.w3.org/1999/xlink">
<g><path style="opacity:0.995" fill="#4eacf2" d="M 106.5,26.5 C 106.5,106.167 106.5,185.833 106.5,265.5C 80.8754,305.716 81.2087,345.716 107.5,385.5C 106.502,418.329 106.168,451.329 106.5,484.5C 94.4987,483.943 83.1654,480.943 72.5,475.5C 72.5,328.833 72.5,182.167 72.5,35.5C 83.1654,30.0573 94.4987,27.0573 106.5,26.5 Z"/></g>
<g><path style="opacity:0.998" fill="#47a8f0" d="M 106.5,26.5 C 115.833,26.5 125.167,26.5 134.5,26.5C 134.5,96.5 134.5,166.5 134.5,236.5C 125.139,246.193 115.806,255.86 106.5,265.5C 106.5,185.833 106.5,106.167 106.5,26.5 Z"/></g>
<g><path style="opacity:0.998" fill="#41a4ee" d="M 134.5,26.5 C 147.833,26.5 161.167,26.5 174.5,26.5C 172.052,27.4731 169.385,27.8064 166.5,27.5C 166.5,90.8333 166.5,154.167 166.5,217.5C 160.378,217.28 154.712,218.78 149.5,222C 144.631,227.037 139.631,231.87 134.5,236.5C 134.5,166.5 134.5,96.5 134.5,26.5 Z"/></g>
<g><path style="opacity:0.996" fill="#3ca1ec" d="M 174.5,26.5 C 180.5,26.5 186.5,26.5 192.5,26.5C 192.167,111.335 192.501,196.002 193.5,280.5C 185.579,291.483 185.579,302.483 193.5,313.5C 192.175,332.402 192.175,351.402 193.5,370.5C 164.713,373.208 146.88,360.542 140,332.5C 137.996,317.852 141.662,304.852 151,293.5C 162.667,281.833 174.333,270.167 186,258.5C 194.565,242.623 191.398,229.789 176.5,220C 173.28,218.648 169.947,217.814 166.5,217.5C 166.5,154.167 166.5,90.8333 166.5,27.5C 169.385,27.8064 172.052,27.4731 174.5,26.5 Z"/></g>
<g><path style="opacity:0.998" fill="#369deb" d="M 192.5,26.5 C 199.833,26.5 207.167,26.5 214.5,26.5C 214.5,104.167 214.5,181.833 214.5,259.5C 207.833,266.833 200.833,273.833 193.5,280.5C 192.501,196.002 192.167,111.335 192.5,26.5 Z"/></g>
<g><path style="opacity:0.993" fill="#309ae9" d="M 214.5,26.5 C 228.167,26.5 241.833,26.5 255.5,26.5C 255.5,56.1667 255.5,85.8333 255.5,115.5C 246.202,125.298 236.702,134.965 227,144.5C 217.718,157.718 218.551,170.218 229.5,182C 237.445,187.405 246.112,188.905 255.5,186.5C 255.5,196.833 255.5,207.167 255.5,217.5C 242.531,232.136 228.865,246.136 214.5,259.5C 214.5,181.833 214.5,104.167 214.5,26.5 Z"/></g>
<g><path style="opacity:0.993" fill="#2895e7" d="M 255.5,26.5 C 266.833,26.5 278.167,26.5 289.5,26.5C 288.081,27.4511 286.415,27.7845 284.5,27.5C 284.178,50.2417 284.511,72.9084 285.5,95.5C 274.684,100.99 264.684,107.657 255.5,115.5C 255.5,85.8333 255.5,56.1667 255.5,26.5 Z"/></g>
<g><path style="opacity:0.994" fill="#2291e5" d="M 289.5,26.5 C 299.5,26.5 309.5,26.5 319.5,26.5C 319.179,46.9091 319.512,67.2424 320.5,87.5C 308.354,88.1201 296.687,90.7867 285.5,95.5C 284.511,72.9084 284.178,50.2417 284.5,27.5C 286.415,27.7845 288.081,27.4511 289.5,26.5 Z"/></g>
<g><path style="opacity:0.988" fill="#198ce2" d="M 319.5,26.5 C 341.5,26.5 363.5,26.5 385.5,26.5C 382.713,27.4767 379.713,27.81 376.5,27.5C 376.5,51.8333 376.5,76.1667 376.5,100.5C 359.132,90.8257 340.465,86.4923 320.5,87.5C 319.512,67.2424 319.179,46.9091 319.5,26.5 Z"/></g>
<g><path style="opacity:0.994" fill="#0f87df" d="M 385.5,26.5 C 394.173,26.3336 402.84,26.5002 411.5,27C 413.708,27.1909 415.708,27.6909 417.5,28.5C 416.833,67.1667 416.167,105.833 415.5,144.5C 406.728,126.062 393.728,111.396 376.5,100.5C 376.5,76.1667 376.5,51.8333 376.5,27.5C 379.713,27.81 382.713,27.4767 385.5,26.5 Z"/></g>
<g><path style="opacity:0.999" fill="#0983dd" d="M 417.5,28.5 C 429.944,30.5593 440.944,35.5593 450.5,43.5C 449.833,113.833 449.5,184.333 449.5,255C 449.5,325.837 450.167,396.337 451.5,466.5C 441.359,475.069 429.693,480.736 416.5,483.5C 416.833,397.332 416.499,311.332 415.5,225.5C 427.46,198.512 427.46,171.512 415.5,144.5C 416.167,105.833 416.833,67.1667 417.5,28.5 Z"/></g>
<g><path style="opacity:0.998" fill="#54b0f4" d="M 72.5,35.5 C 72.5,182.167 72.5,328.833 72.5,475.5C 60.6935,469.697 51.0268,461.363 43.5,450.5C 43.5,320.5 43.5,190.5 43.5,60.5C 51.0268,49.6367 60.6935,41.3033 72.5,35.5 Z"/></g>
<g><path style="opacity:0.992" fill="#037fdc" d="M 450.5,43.5 C 469.062,57.6067 480.229,76.2733 484,99.5C 484.667,203.5 484.667,307.5 484,411.5C 481.815,427.196 475.815,441.196 466,453.5C 461.574,458.434 456.74,462.767 451.5,466.5C 450.167,396.337 449.5,325.837 449.5,255C 449.5,184.333 449.833,113.833 450.5,43.5 Z"/></g>
<g><path style="opacity:0.984" fill="#59b2f5" d="M 43.5,60.5 C 43.5,190.5 43.5,320.5 43.5,450.5C 34.4305,439.157 28.9305,426.157 27,411.5C 26.3333,307.5 26.3333,203.5 27,99.5C 28.9305,84.8426 34.4305,71.8426 43.5,60.5 Z"/></g>
<g><path style="opacity:0.993" fill="#1b8de3" d="M 317.5,140.5 C 350.136,137.278 368.469,152.111 372.5,185C 371.768,195.866 368.268,205.699 362,214.5C 351,225.5 340,236.5 329,247.5C 320.776,258.283 320.442,269.283 328,280.5C 334.392,288.111 342.559,291.444 352.5,290.5C 351.504,355.095 351.17,419.762 351.5,484.5C 340.833,484.5 330.167,484.5 319.5,484.5C 319.5,398.833 319.5,313.167 319.5,227.5C 324.833,217.833 324.833,208.167 319.5,198.5C 320.154,178.804 319.488,159.471 317.5,140.5 Z"/></g>
<g><path style="opacity:0.98" fill="#2392e5" d="M 317.5,140.5 C 319.488,159.471 320.154,178.804 319.5,198.5C 306.962,184.428 293.295,183.261 278.5,195C 270.965,202.702 263.298,210.202 255.5,217.5C 255.5,207.167 255.5,196.833 255.5,186.5C 258.806,185.18 261.806,183.347 264.5,181C 275.167,170.333 285.833,159.667 296.5,149C 302.745,144.307 309.745,141.474 317.5,140.5 Z"/></g>
<g><path style="opacity:0.997" fill="#1087df" d="M 415.5,225.5 C 416.499,311.332 416.833,397.332 416.5,483.5C 406.194,484.371 395.86,484.704 385.5,484.5C 382.713,483.523 379.713,483.19 376.5,483.5C 376.5,413.833 376.5,344.167 376.5,274.5C 385.495,265.338 394.328,256.005 403,246.5C 408.185,240.133 412.352,233.133 415.5,225.5 Z"/></g>
<g><path style="opacity:0.995" fill="#2292e5" d="M 319.5,227.5 C 319.5,313.167 319.5,398.833 319.5,484.5C 309.5,484.5 299.5,484.5 289.5,484.5C 288.081,483.549 286.415,483.216 284.5,483.5C 284.832,444.33 284.499,405.33 283.5,366.5C 296.427,353.317 296.761,339.817 284.5,326C 275.438,319.418 265.771,318.251 255.5,322.5C 255.5,312.5 255.5,302.5 255.5,292.5C 276.861,270.806 298.194,249.14 319.5,227.5 Z"/></g>
<g><path style="opacity:0.997" fill="#168ae1" d="M 376.5,274.5 C 376.5,344.167 376.5,413.833 376.5,483.5C 379.713,483.19 382.713,483.523 385.5,484.5C 374.167,484.5 362.833,484.5 351.5,484.5C 351.17,419.762 351.504,355.095 352.5,290.5C 356.373,289.566 360.039,288.066 363.5,286C 367.865,282.159 372.198,278.326 376.5,274.5 Z"/></g>
<g><path style="opacity:0.988" fill="#349cea" d="M 255.5,292.5 C 255.5,302.5 255.5,312.5 255.5,322.5C 241.759,334.738 228.425,347.572 215.5,361C 208.994,366.086 201.661,369.253 193.5,370.5C 192.175,351.402 192.175,332.402 193.5,313.5C 204.297,324.425 216.297,325.925 229.5,318C 238.035,309.298 246.702,300.798 255.5,292.5 Z"/></g>
<g><path style="opacity:0.993" fill="#2c97e8" d="M 283.5,366.5 C 284.499,405.33 284.832,444.33 284.5,483.5C 286.415,483.216 288.081,483.549 289.5,484.5C 268.5,484.5 247.5,484.5 226.5,484.5C 226.5,461.167 226.5,437.833 226.5,414.5C 234.476,411.019 241.81,406.519 248.5,401C 260.035,389.298 271.702,377.798 283.5,366.5 Z"/></g>
<g><path style="opacity:0.991" fill="#43a5ef" d="M 107.5,385.5 C 122.586,404.882 142.253,416.882 166.5,421.5C 166.5,442.167 166.5,462.833 166.5,483.5C 169.385,483.194 172.052,483.527 174.5,484.5C 151.833,484.5 129.167,484.5 106.5,484.5C 106.168,451.329 106.502,418.329 107.5,385.5 Z"/></g>
<g><path style="opacity:0.991" fill="#379eeb" d="M 226.5,414.5 C 226.5,437.833 226.5,461.167 226.5,484.5C 209.167,484.5 191.833,484.5 174.5,484.5C 172.052,483.527 169.385,483.194 166.5,483.5C 166.5,462.833 166.5,442.167 166.5,421.5C 187.277,425.856 207.277,423.523 226.5,414.5 Z"/></g>
</svg>
